# xmcd CD database file
#
# Track frame offsets:
#	150
#	22992
#	45142
#	68610
#	90832
#	102625
#	123640
#	146947
#	169697
#	189027
#
# Disc length: 2760 seconds
#
# Revision: 0
# Processed by: cddbd v1.5.1PL0 Copyright (c) Steve Scherf et al.
# Submitted via: CDex 1.51
#
DISCID=770ac60a
DTITLE=efsaneler - turkish anatolia new age 5
DYEAR=1997
DGENRE=New Age
TTITLE0=hekimoglu
TTITLE1=seyyah
TTITLE2=semah
TTITLE3=daglar kizi
TTITLE4=efsaneler
TTITLE5=ilgaz
TTITLE6=muhur gozlum
TTITLE7=gelibolu
TTITLE8=bitez yalisi
TTITLE9=urfa turkusu
EXTD=YEAR: 1997
EXTT0=
EXTT1=
EXTT2=
EXTT3=
EXTT4=
EXTT5=
EXTT6=
EXTT7=
EXTT8=
EXTT9=
PLAYORDER=
